<svg xmlns="http://www.w3.org/2000/svg" width="1280" height="760" viewBox="0 0 1280 760" fill="none">
  <rect width="1280" height="760" fill="#f4f4f5"/>
  <rect x="0" y="0" width="304" height="760" fill="#ffffff"/>
  <rect x="303" y="0" width="1" height="760" fill="#e4e4e7"/>
  <text x="32" y="54" font-family="Arial, sans-serif" font-size="30" font-weight="800" fill="#09090b">PDFForge</text>
  <text x="32" y="84" font-family="Arial, sans-serif" font-size="15" fill="#71717a">Private PDF tools for your server.</text>
  <text x="32" y="130" font-family="Arial, sans-serif" font-size="12" font-weight="700" fill="#a1a1aa">ORGANIZE PDF</text>
  <rect x="20" y="146" width="264" height="46" rx="6" fill="#fff1f2" stroke="#ffe4e6"/>
  <text x="58" y="175" font-family="Arial, sans-serif" font-size="15" font-weight="700" fill="#be123c">Merge PDF</text>
  <text x="32" y="224" font-family="Arial, sans-serif" font-size="15" font-weight="600" fill="#3f3f46">Split PDF</text>
  <text x="32" y="268" font-family="Arial, sans-serif" font-size="15" font-weight="600" fill="#3f3f46">Delete Pages</text>
  <text x="32" y="312" font-family="Arial, sans-serif" font-size="15" font-weight="600" fill="#3f3f46">Organize Pages</text>
  <text x="32" y="374" font-family="Arial, sans-serif" font-size="12" font-weight="700" fill="#a1a1aa">CONVERT</text>
  <text x="32" y="418" font-family="Arial, sans-serif" font-size="15" font-weight="600" fill="#3f3f46">PDF to JPG/PNG</text>
  <text x="32" y="462" font-family="Arial, sans-serif" font-size="15" font-weight="600" fill="#3f3f46">JPG/PNG to PDF</text>
  <rect x="304" y="0" width="976" height="64" fill="#fafafa"/>
  <rect x="304" y="63" width="976" height="1" fill="#e4e4e7"/>
  <text x="340" y="30" font-family="Arial, sans-serif" font-size="23" font-weight="800" fill="#09090b">Merge PDF</text>
  <text x="340" y="52" font-family="Arial, sans-serif" font-size="14" fill="#71717a">Combine PDFs in upload order.</text>
  <rect x="340" y="96" width="350" height="208" rx="6" fill="#fff1f2" stroke="#fda4af" stroke-dasharray="8 8"/>
  <text x="442" y="190" font-family="Arial, sans-serif" font-size="22" font-weight="800" fill="#09090b">Drop files or click to upload</text>
  <text x="436" y="220" font-family="Arial, sans-serif" font-size="14" fill="#71717a">Multiple files supported · Files stay on this server.</text>
  <rect x="340" y="332" width="350" height="128" rx="6" fill="#ffffff" stroke="#e4e4e7"/>
  <text x="364" y="370" font-family="Arial, sans-serif" font-size="15" font-weight="700" fill="#09090b">Progress</text>
  <rect x="364" y="392" width="302" height="8" rx="4" fill="#f4f4f5"/>
  <rect x="364" y="392" width="196" height="8" rx="4" fill="#e11d48"/>
  <rect x="364" y="420" width="302" height="40" rx="6" fill="#e11d48"/>
  <text x="454" y="446" font-family="Arial, sans-serif" font-size="14" font-weight="800" fill="#ffffff">Run Merge PDF</text>
  <rect x="718" y="96" width="250" height="560" rx="6" fill="#ffffff" stroke="#e4e4e7"/>
  <rect x="718" y="96" width="250" height="48" rx="6" fill="#ffffff"/>
  <text x="742" y="126" font-family="Arial, sans-serif" font-size="15" font-weight="800" fill="#09090b">Original</text>
  <rect x="742" y="178" width="202" height="300" rx="4" fill="#f4f4f5" stroke="#e4e4e7"/>
  <text x="802" y="334" font-family="Arial, sans-serif" font-size="14" fill="#71717a">PDF preview</text>
  <rect x="996" y="96" width="250" height="560" rx="6" fill="#ffffff" stroke="#e4e4e7"/>
  <text x="1020" y="126" font-family="Arial, sans-serif" font-size="15" font-weight="800" fill="#09090b">Processed</text>
  <rect x="1020" y="178" width="202" height="300" rx="4" fill="#f4f4f5" stroke="#e4e4e7"/>
  <text x="1072" y="334" font-family="Arial, sans-serif" font-size="14" fill="#71717a">Result preview</text>
</svg>
